<svg xmlns="http://www.w3.org/2000/svg" width="146" height="210" viewBox="0 0 146 210">
  <g fill="none" fill-rule="evenodd">
    <g fill="#E535AB" fill-rule="nonzero" transform="translate(17)">
      <rect width="5.137" height="101.884" x="30.822" y="-.856" transform="rotate(-149.999 33.39 50.086)"/>
      <rect width="102.74" height="5.137" x="4.281" y="85.616"/>
      <rect width="59.075" height="5.137" x="4.281" y="98.459" transform="rotate(-149.999 33.818 101.027)"/>
      <rect width="59.075" height="5.137" x="48.801" y="21.404" transform="rotate(-149.999 78.339 23.973)"/>
      <rect width="5.137" height="59.075" x="30.822" y="-5.137" transform="rotate(-120.001 33.39 24.4)"/>
      <rect width="102.74" height="5.137" x="26.541" y="47.089" transform="rotate(-120.001 77.911 49.658)"/>
      <rect width="5.137" height="59.075" x="8.562" y="33.39"/>
      <rect width="5.137" height="59.075" x="97.603" y="33.39"/>
      <rect width="4.281" height="51.37" x="76.199" y="75.342" transform="rotate(-120.001 78.339 101.027)"/>
      <path d="M109.795929 93.7483952C106.73813 99.0727416 99.921786 100.890033 94.6024895 97.8293314 89.283193 94.7686293 87.4676247 87.9458142 90.5254239 82.6214678 93.5832231 77.2971214 100.399567 75.4798295 105.718864 78.5405316 111.070012 81.6331161 112.885581 88.4240489 109.795929 93.7483952M20.7745368 42.6936007C17.7138347 48.0179471 10.8910196 49.835239 5.56667327 46.7745368.242326897 43.7138347-1.57496498 36.8910196 1.48573713 31.5666733 4.54643923 26.2423269 11.3692543 24.425035 16.6936007 27.4857371 22.0179471 30.5783215 23.835239 37.3692543 20.7745368 42.6936007M1.48573713 93.7483952C-1.57496498 88.4240489.242326897 81.6331161 5.56667327 78.5405316 10.8910196 75.4798295 17.6819524 77.2971214 20.7745368 82.6214678 23.835239 87.9458142 22.0179471 94.7367469 16.6936007 97.8293314 11.337372 100.890033 4.54643923 99.0727416 1.48573713 93.7483952M90.526833 42.3785322C87.4661309 37.0541858 89.2834228 30.2632531 94.6077692 27.1706686 99.9321155 24.1099665 106.723048 25.9272584 109.815633 31.2516048 112.876335 36.5759511 111.059043 43.3668839 105.734697 46.4594684 100.41035 49.5201705 93.5875351 47.7028786 90.526833 42.3785322M55.6506849 125C49.4956235 125 44.5205479 120.024924 44.5205479 113.869863 44.5205479 107.714802 49.4956235 102.739726 55.6506849 102.739726 61.8057464 102.739726 66.7808219 107.714802 66.7808219 113.869863 66.7808219 119.993033 61.8057464 125 55.6506849 125M55.6506849 22.260274C49.4956235 22.260274 44.5205479 17.2851984 44.5205479 11.130137 44.5205479 4.97507556 49.4956235 0 55.6506849 0 61.8057464 0 66.7808219 4.97507556 66.7808219 11.130137 66.7808219 17.2851984 61.8057464 22.260274 55.6506849 22.260274"/>
    </g>
    <path fill="#3E3E3E" d="M11.592 153.196C13.0080071 153.196 14.1719954 153.393998 15.084 153.79 15.9960046 154.186002 16.9919946 154.767996 18.072 155.536 18.3840016 155.776001 18.6239992 155.896 18.792 155.896 19.2480023 155.896 19.5479993 155.164007 19.692 153.7L20.52 153.7C20.4239995 155.260008 20.376 158.01998 20.376 161.98L19.548 161.98C19.3319989 160.707994 19.1040012 159.658004 18.864 158.83 18.6239988 158.001996 18.2520025 157.276003 17.748 156.652 17.0519965 155.787996 16.1460056 155.104003 15.03 154.6 13.9139944 154.095997 12.7440061 153.844 11.52 153.844 9.93599208 153.844 8.544006 154.359995 7.344 155.392 6.143994 156.424005 5.22000324 157.89399 4.572 159.802 3.92399676 161.71001 3.6 163.935987 3.6 166.48 3.6 170.800022 4.2899931 173.96199 5.67 175.966 7.0500069 177.97001 9.21598524 178.972 12.168 178.972 13.6080072 178.972 14.8559947 178.600004 15.912 177.856 16.3440022 177.567999 16.6259993 177.286001 16.758 177.01 16.8900007 176.733999 16.956 176.356002 16.956 175.876L16.956 172.42C16.956 171.411995 16.860001 170.680002 16.668 170.224 16.475999 169.767998 16.1400024 169.456001 15.66 169.288 15.1799976 169.119999 14.4000054 169.012 13.32 168.964L13.32 168.244C14.5680062 168.316 16.2599893 168.352 18.396 168.352 20.0280082 168.352 21.2759957 168.316 22.14 168.244L22.14 168.964C21.5879972 169.012 21.1860013 169.107999 20.934 169.252 20.6819987 169.396001 20.5140004 169.671998 20.43 170.08 20.3459996 170.488002 20.304 171.147995 20.304 172.06L20.304 179.188 19.584 179.188C19.5599999 178.707998 19.4640008 178.246002 19.296 177.802 19.1279992 177.357998 18.9000014 177.136 18.612 177.136 18.4679993 177.136 18.3240007 177.172 18.18 177.244 18.0359993 177.316 17.7840018 177.483999 17.424 177.748 16.5839958 178.396003 15.7140045 178.881998 14.814 179.206 13.9139955 179.530002 12.9120055 179.692 11.808 179.692 9.33598764 179.692 7.21800882 179.182005 5.454 178.162 3.68999118 177.141995 2.34000468 175.67201 1.404 173.752.46799532 171.83199.22044605e-16 169.540013 0 166.876.22044605e-16 164.139986.49799502 161.73401 1.494 159.658 2.49000498 157.58199 3.86399124 155.986006 5.616 154.87 7.36800876 153.753994 9.35998884 153.196 11.592 153.196zM35.604 160.144C36.5640048 160.144 37.3499969 160.419997 37.962 160.972 38.5740031 161.524003 38.88 162.195996 38.88 162.988 38.88 163.612003 38.6940019 164.145998 38.322 164.59 37.9499981 165.034002 37.4520031 165.256 36.828 165.256 36.2999974 165.256 35.8500019 165.088002 35.478 164.752 35.1059981 164.415998 34.92 163.960003 34.92 163.384 34.92 162.591996 35.3279959 161.944003 36.144 161.44 35.9759992 161.199999 35.7240017 161.08 35.388 161.08 34.4519953 161.08 33.6000038 161.445996 32.832 162.178 32.0639962 162.910004 31.4640022 163.803995 31.032 164.86 30.5999978 165.916005 30.384 166.911995 30.384 167.848L30.384 175.48C30.384 176.584006 30.7019968 177.351998 31.338 177.784 31.9740032 178.216002 32.9279936 178.432 34.2 178.432L34.2 179.188 33.336 179.152C30.8879878 179.08 29.3280034 179.044 28.656 179.044 28.0319969 179.044 26.616011 179.092 24.408 179.188L24.408 178.432C25.416005 178.432 26.123998 178.246002 26.532 177.874 26.940002 177.501998 27.144 176.824005 27.144 175.84L27.144 164.572C27.144 163.467994 26.940002 162.664003 26.532 162.16 26.123998 161.655997 25.416005 161.404 24.408 161.404L24.408 160.648C25.1760038 160.72 25.9199964 160.756 26.64 160.756 28.1520076 160.756 29.3999951 160.588002 30.384 160.252L30.384 164.752C30.8160022 163.551994 31.5059953 162.484005 32.454 161.548 33.4020047 160.611995 34.4519942 160.144 35.604 160.144zM45.252 179.44C43.7399924 179.44 42.6180037 179.062004 41.886 178.306 41.1539963 177.549996 40.788 176.500007 40.788 175.156 40.788 174.075995 41.0819971 173.188003 41.67 172.492 42.2580029 171.795997 42.953996 171.244002 43.758 170.836 44.562004 170.427998 45.6239934 169.996002 46.944 169.54 48.2880067 169.083998 49.2839968 168.664002 49.932 168.28 50.5800032 167.895998 50.904 167.380003 50.904 166.732L50.904 164.5C50.904 163.107993 50.6100029 162.154003 50.022 161.638 49.4339971 161.121997 48.6120053 160.864 47.556 160.864 45.8759916 160.864 44.6880035 161.295996 43.992 162.16 44.4720024 162.280001 44.8739984 162.531998 45.198 162.916 45.5220016 163.300002 45.684 163.779997 45.684 164.356 45.684 164.956003 45.4920019 165.429998 45.108 165.778 44.7239981 166.126002 44.232003 166.3 43.632 166.3 42.9599966 166.3 42.4560017 166.090002 42.12 165.67 41.7839983 165.249998 41.616 164.740003 41.616 164.14 41.616 163.563997 41.7539986 163.084002 42.03 162.7 42.3060014 162.315998 42.7199972 161.932002 43.272 161.548 43.8480029 161.139998 44.5799956 160.804001 45.468 160.54 46.3560044 160.275999 47.3279947 160.144 48.384 160.144 50.2560094 160.144 51.6719952 160.587996 52.632 161.476 53.232003 162.028003 53.633999 162.693996 53.838 163.474 54.042001 164.254004 54.144 165.279994 54.144 166.552L54.144 176.56C54.144 177.160003 54.2279992 177.591999 54.396 177.856 54.5640008 178.120001 54.851998 178.252 55.26 178.252 55.5480014 178.252 55.8179987 178.186001 56.07 178.054 56.3220013 177.921999 56.5919986 177.736001 56.88 177.496L57.276 178.108C56.6519969 178.588002 56.1180022 178.929999 55.674 179.134 55.2299978 179.338001 54.6720034 179.44 54 179.44 52.8479942 179.44 52.0440023 179.152003 51.588 178.576 51.1319977 177.999997 50.904 177.220005 50.904 176.236 50.1839964 177.436006 49.3560047 178.269998 48.42 178.738 47.4839953 179.206002 46.4280059 179.44 45.252 179.44zM46.836 178C48.4200079 178 49.7759944 177.088009 50.904 175.264L50.904 168.208C50.6879989 168.544002 50.3880019 168.819999 50.004 169.036 49.6199981 169.252001 49.032004 169.539998 48.24 169.9 47.3279954 170.284002 46.5900028 170.649998 46.026 170.998 45.4619972 171.346002 44.976002 171.819997 44.568 172.42 44.159998 173.020003 43.956 173.787995 43.956 174.724 43.956 175.804005 44.2199974 176.619997 44.748 177.172 45.2760026 177.724003 45.9719957 178 46.836 178zM69.84 160.144C71.1120064 160.144 72.2579949 160.491997 73.278 161.188 74.2980051 161.884003 75.0959971 162.903993 75.672 164.248 76.2480029 165.592007 76.536 167.199991 76.536 169.072 76.536 170.920009 76.2420029 172.647992 75.654 174.256 75.0659971 175.864008 74.1540062 177.171995 72.918 178.18 71.6819938 179.188005 70.1400092 179.692 68.292 179.692 67.3799954 179.692 66.5520037 179.512002 65.808 179.152 65.0639963 178.791998 64.488002 178.324003 64.08 177.748L64.08 182.356C64.08 183.340005 64.3679971 184.017998 64.944 184.39 65.5200029 184.762002 66.3839942 184.948 67.536 184.948L67.536 185.704 66.708 185.668C64.4759888 185.596 63.0240034 185.56 62.352 185.56 61.7759971 185.56 60.4800101 185.608 58.464 185.704L58.464 184.948C59.3520044 184.948 59.9699983 184.786002 60.318 184.462 60.6660017 184.137998 60.84 183.556004 60.84 182.716L60.84 164.572C60.84 163.467994 60.636002 162.664003 60.228 162.16 59.819998 161.655997 59.112005 161.404 58.104 161.404L58.104 160.648C58.8480037 160.72 59.5919963 160.756 60.336 160.756 61.8480076 160.756 63.0959951 160.588002 64.08 160.252L64.08 164.068C64.6080026 162.819994 65.375995 161.854003 66.384 161.17 67.392005 160.485997 68.5439935 160.144 69.84 160.144zM67.896 178.864C71.3280172 178.864 73.044 175.768031 73.044 169.576 73.044 164.007972 71.6520139 161.224 68.868 161.224 67.7879946 161.224 66.8160043 161.613996 65.952 162.394 65.0879957 163.174004 64.4640019 164.295993 64.08 165.76L64.08 176.56C64.4160017 177.256003 64.9079968 177.813998 65.556 178.234 66.2040032 178.654002 66.9839954 178.864 67.896 178.864zM84.924 164.464C85.524003 162.951992 86.3579947 161.854003 87.426 161.17 88.4940053 160.485997 89.6999933 160.144 91.044 160.144 92.7240084 160.144 93.9959957 160.599995 94.86 161.512 95.3160023 161.992002 95.639999 162.591996 95.832 163.312 96.024001 164.032004 96.12 165.003994 96.12 166.228L96.12 175.84C96.12 176.824005 96.323998 177.501998 96.732 177.874 97.140002 178.246002 97.847995 178.432 98.856 178.432L98.856 179.188C96.647989 179.092 95.2080034 179.044 94.536 179.044 93.8639966 179.044 92.5200101 179.092 90.504 179.188L90.504 178.432C91.3920044 178.432 92.0099983 178.246002 92.358 177.874 92.7060017 177.501998 92.88 176.824005 92.88 175.84L92.88 165.436C92.88 164.091993 92.6880019 163.066004 92.304 162.358 91.9199981 161.649996 91.1400059 161.296 89.964 161.296 88.9799951 161.296 88.1100038 161.571997 87.354 162.124 86.5979962 162.676003 86.0040022 163.449995 85.572 164.446 85.1399978 165.442005 84.924 166.563994 84.924 167.812L84.924 175.84C84.924 176.824005 85.0979983 177.501998 85.446 177.874 85.7940017 178.246002 86.4119956 178.432 87.3 178.432L87.3 179.188C85.2839899 179.092 83.9400034 179.044 83.268 179.044 82.5959966 179.044 81.156011 179.092 78.948 179.188L78.948 178.432C79.956005 178.432 80.663998 178.246002 81.072 177.874 81.480002 177.501998 81.684 176.824005 81.684 175.84L81.684 155.32C81.684 154.215994 81.480002 153.412003 81.072 152.908 80.663998 152.403997 79.956005 152.152 78.948 152.152L78.948 151.396C79.7160038 151.468 80.4599964 151.504 81.18 151.504 82.6920076 151.504 83.9399951 151.336002 84.924 151L84.924 164.464zM126.54 180.232C126.011997 182.056009 125.256005 183.423995 124.272 184.336 123.095994 185.416005 121.47601 185.956 119.412 185.956 118.307994 185.956 117.228005 185.788002 116.172 185.452 115.115995 185.115998 113.784008 184.588004 112.176 183.868 110.399991 183.099996 108.948006 182.524002 107.82 182.14L106.956 181.888C105.923995 182.248002 104.928005 182.428 103.968 182.428 102.863994 182.428 102.312 182.188002 102.312 181.708 102.312 181.203997 102.959994 180.952 104.256 180.952 105.096004 180.952 105.995995 181.047999 106.956 181.24 107.724004 181.023999 108.611995 180.688002 109.62 180.232 110.244003 179.943999 110.711998 179.740001 111.024 179.62 108.98399 179.427999 107.214007 178.792005 105.714 177.712 104.213992 176.631995 103.050004 175.150009 102.222 173.266 101.393996 171.381991 100.98 169.180013 100.98 166.66 100.98 164.019987 101.465995 161.68001 102.438 159.64 103.410005 157.59999 104.765991 156.016006 106.506 154.888 108.246009 153.759994 110.219989 153.196 112.428 153.196 114.708011 153.196 116.705991 153.711995 118.422 154.744 120.138009 155.776005 121.469995 157.26999 122.418 159.226 123.366005 161.18201 123.84 163.515986 123.84 166.228 123.84 168.724012 123.408004 170.94999 122.544 172.906 121.679996 174.86201 120.468008 176.421994 118.908 177.586 117.347992 178.750006 115.56001 179.427999 113.544 179.62L113.544 179.656C112.967997 179.728 112.470002 179.829999 112.05 179.962 111.629998 180.094001 111.072003 180.303999 110.376 180.592 109.511996 180.976002 108.792003 181.251999 108.216 181.42 110.880013 181.948003 113.141991 182.367998 115.002 182.68 116.862009 182.992002 118.403994 183.148 119.628 183.148 121.332009 183.148 122.681995 182.902002 123.678 182.41 124.674005 181.917998 125.447997 181.120006 126 180.016L126.54 180.232zM104.58 166.516C104.58 169.012012 104.933996 171.207991 105.642 173.104 106.350004 175.000009 107.303994 176.463995 108.504 177.496 109.704006 178.528005 111.047993 179.044 112.536 179.044 114.072008 179.044 115.421994 178.510005 116.586 177.442 117.750006 176.373995 118.649997 174.88001 119.286 172.96 119.922003 171.03999 120.24 168.844012 120.24 166.372 120.24 163.875988 119.886004 161.680009 119.178 159.784 118.469996 157.887991 117.516006 156.424005 116.316 155.392 115.115994 154.359995 113.772007 153.844 112.284 153.844 110.747992 153.844 109.398006 154.377995 108.234 155.446 107.069994 156.514005 106.170003 158.00799 105.534 159.928 104.897997 161.84801 104.58 164.043988 104.58 166.516zM136.152 154.42C135.287996 154.468 134.658002 154.563999 134.262 154.708 133.865998 154.852001 133.596001 155.127998 133.452 155.536 133.307999 155.944002 133.236 156.603995 133.236 157.516L133.236 175.372C133.236 176.284005 133.307999 176.943998 133.452 177.352 133.596001 177.760002 133.865998 178.029999 134.262 178.162 134.658002 178.294001 135.287996 178.36 136.152 178.36L138.78 178.36C140.268007 178.36 141.401996 178.150002 142.182 177.73 142.962004 177.309998 143.531998 176.632005 143.892 175.696 144.252002 174.759995 144.515999 173.404009 144.684 171.628L145.512 171.628C145.44 172.372004 145.404 173.355994 145.404 174.58 145.404 175.948007 145.487999 177.483991 145.656 179.188 144.023992 179.116 141.276019 179.08 137.412 179.08 132.803977 179.08 129.324012 179.116 126.972 179.188L126.972 178.468C127.836004 178.42 128.465998 178.324001 128.862 178.18 129.258002 178.035999 129.527999 177.760002 129.672 177.352 129.816001 176.943998 129.888 176.284005 129.888 175.372L129.888 157.516C129.888 156.603995 129.816001 155.944002 129.672 155.536 129.527999 155.127998 129.258002 154.852001 128.862 154.708 128.465998 154.563999 127.836004 154.468 126.972 154.42L126.972 153.7C127.980005 153.772 129.51599 153.808 131.58 153.808 133.50001 153.808 135.023994 153.772 136.152 153.7L136.152 154.42zM51.78 195.56C52.380003 195.56 52.879998 195.54 53.28 195.5L53.28 195.9C52.5333296 196.073334 52.0066682 196.653328 51.7 197.64L47.92 209.76 47.6 209.76 44.12 199.46 40.94 209.76 40.62 209.76 36.38 197.18C36.0999986 196.353329 35.6400032 195.926667 35 195.9L35 195.5C35.5466694 195.54 36.2599956 195.56 37.14 195.56 38.1000048 195.56 38.8199976 195.54 39.3 195.5L39.3 195.9C38.9399982 195.926667 38.6866674 195.993333 38.54 196.1 38.3933326 196.206667 38.32 196.373332 38.32 196.6 38.32 196.813334 38.3933326 197.139998 38.54 197.58L41.46 206.5 43.9 198.76 43.36 197.18C43.093332 196.353329 42.7000026 195.926667 42.18 195.9L42.18 195.5C42.6600024 195.54 43.3066626 195.56 44.12 195.56 45.2666724 195.56 46.1199972 195.54 46.68 195.5L46.68 195.9C46.1733308 195.926667 45.820001 195.983333 45.62 196.07 45.419999 196.156667 45.32 196.339999 45.32 196.62 45.32 196.860001 45.386666 197.179998 45.52 197.58L48.4 206.48 50.86 198.74C51.0733344 198.086663 51.18 197.546669 51.18 197.12 51.18 196.679998 51.046668 196.370001 50.78 196.19 50.513332 196.009999 50.080003 195.913333 49.48 195.9L49.48 195.5C50.2400038 195.54 51.0066628 195.56 51.78 195.56zM61.12 207.26C60.8799988 207.993337 60.4300033 208.623331 59.77 209.15 59.1099967 209.676669 58.313338 209.94 57.38 209.94 56.4333286 209.94 55.6133368 209.723335 54.92 209.29 54.2266632 208.856664 53.6966685 208.250004 53.33 207.47 52.9633315 206.689996 52.78 205.786672 52.78 204.76 52.78 203.599994 52.9666648 202.593338 53.34 201.74 53.7133352 200.886662 54.2399966 200.230002 54.92 199.77 55.6000034 199.309998 56.3933288 199.08 57.3 199.08 58.500006 199.08 59.4233301 199.44333 60.07 200.17 60.7166699 200.89667 61.04 201.999993 61.04 203.48L54.78 203.48C54.7399998 203.853335 54.72 204.279998 54.72 204.76 54.72 205.640004 54.8633319 206.406663 55.15 207.06 55.4366681 207.713337 55.8166643 208.216665 56.29 208.57 56.7633357 208.923335 57.2599974 209.1 57.78 209.1 58.4200032 209.1 58.9866642 208.946668 59.48 208.64 59.9733358 208.333332 60.386665 207.820004 60.72 207.1L61.12 207.26zM57.22 199.46C56.5933302 199.46 56.0533356 199.766664 55.6 200.38 55.1466644 200.993336 54.8666672 201.899994 54.76 203.1L59.12 203.1C59.1466668 202.059995 58.9966683 201.193337 58.67 200.5 58.3433317 199.806663 57.8600032 199.46 57.22 199.46zM68.5 199.08C69.633339 199.08 70.5499965 199.546662 71.25 200.48 71.9500035 201.413338 72.3 202.759991 72.3 204.52 72.3 205.680006 72.100002 206.666663 71.7 207.48 71.299998 208.293337 70.7633367 208.906665 70.09 209.32 69.4166633 209.733335 68.6666708 209.94 67.84 209.94 67.3466642 209.94 66.8700023 209.840001 66.41 209.64 65.9499977 209.439999 65.5466684 209.153335 65.2 208.78L63.78 209.98 63.44 209.84C63.5333338 209.506665 63.58 209.120002 63.58 208.68L63.58 196.4C63.58 195.786664 63.4666678 195.340001 63.24 195.06 63.0133322 194.779999 62.6200028 194.64 62.06 194.64L62.06 194.22C62.4866688 194.26 62.899998 194.28 63.3 194.28 64.1400042 194.28 64.8333306 194.186668 65.38 194L65.38 201.22C65.6733348 200.539997 66.0966639 200.013335 66.65 199.64 67.2033361 199.266665 67.8199966 199.08 68.5 199.08zM67.68 209.48C68.5733378 209.48 69.2433311 209.076671 69.69 208.27 70.1366689 207.463329 70.36 206.213342 70.36 204.52 70.36 202.893325 70.160002 201.680004 69.76 200.88 69.359998 200.079996 68.7466708 199.68 67.92 199.68 67.3599972 199.68 66.846669 199.896664 66.38 200.33 65.913331 200.763336 65.580001 201.373329 65.38 202.16L65.38 208.5C65.6866682 208.820002 66.039998 209.063333 66.44 209.23 66.840002 209.396668 67.2533312 209.48 67.68 209.48zM88.88 207.98C89.2000016 208.806671 89.659997 209.233333 90.26 209.26L90.26 209.66C89.726664 209.62 89.0133378 209.6 88.12 209.6 86.9733276 209.6 86.1200028 209.62 85.56 209.66L85.56 209.26C86.0666692 209.233333 86.4299989 209.17 86.65 209.07 86.8700011 208.97 86.98 208.786668 86.98 208.52 86.98 208.293332 86.9000008 207.980002 86.74 207.58L85.52 204.3 80.68 204.3 79.86 206.42C79.593332 207.140004 79.46 207.686665 79.46 208.06 79.46 208.473335 79.6033319 208.773332 79.89 208.96 80.1766681 209.146668 80.6133304 209.246667 81.2 209.26L81.2 209.66C80.4399962 209.62 79.6733372 209.6 78.9 209.6 78.299997 209.6 77.800002 209.62 77.4 209.66L77.4 209.26C78.06667 209.099999 78.5933314 208.520005 78.98 207.52L83.68 195.4 84 195.4 88.88 207.98zM85.36 203.9L83.12 197.92 80.84 203.9 85.36 203.9zM94.06 203.94L94.06 207.54C94.06 208.046669 94.1133328 208.413332 94.22 208.64 94.3266672 208.866668 94.513332 209.02 94.78 209.1 95.046668 209.18 95.479997 209.233333 96.08 209.26L96.08 209.66C95.3866632 209.62 94.406673 209.6 93.14 209.6 91.9933276 209.6 91.1400028 209.62 90.58 209.66L90.58 209.26C91.0600024 209.233333 91.4099989 209.18 91.63 209.1 91.8500011 209.02 91.9999996 208.866668 92.08 208.64 92.1600004 208.413332 92.2 208.046669 92.2 207.54L92.2 197.62C92.2 197.113331 92.1600004 196.746668 92.08 196.52 91.9999996 196.293332 91.8500011 196.14 91.63 196.06 91.4099989 195.98 91.0600024 195.926667 90.58 195.9L90.58 195.5C91.1400028 195.54 91.953328 195.56 93.02 195.56L95.18 195.54C95.4333346 195.526667 95.7199984 195.52 96.04 195.52 97.6000078 195.52 98.7933292 195.876663 99.62 196.59 100.446671 197.303337 100.86 198.259994 100.86 199.46 100.86 200.193337 100.696668 200.896663 100.37 201.57 100.043332 202.243337 99.4900039 202.806664 98.71 203.26 97.9299961 203.713336 96.8933398 203.94 95.6 203.94L94.06 203.94zM95.54 195.9C95.1266646 195.9 94.8166677 195.946666 94.61 196.04 94.4033323 196.133334 94.2600004 196.299999 94.18 196.54 94.0999996 196.780001 94.06 197.139998 94.06 197.62L94.06 203.54 95.4 203.54C96.7066732 203.54 97.6099975 203.190003 98.11 202.49 98.6100025 201.789997 98.86 200.853339 98.86 199.68 98.86 198.38666 98.6033359 197.433336 98.09 196.82 97.5766641 196.206664 96.7266726 195.9 95.54 195.9zM107.38 195.9C106.899998 195.926667 106.550001 195.98 106.33 196.06 106.109999 196.14 105.96 196.293332 105.88 196.52 105.8 196.746668 105.76 197.113331 105.76 197.62L105.76 207.54C105.76 208.046669 105.8 208.413332 105.88 208.64 105.96 208.866668 106.109999 209.02 106.33 209.1 106.550001 209.18 106.899998 209.233333 107.38 209.26L107.38 209.66C106.766664 209.62 105.920005 209.6 104.84 209.6 103.693328 209.6 102.840003 209.62 102.28 209.66L102.28 209.26C102.760002 209.233333 103.109999 209.18 103.33 209.1 103.550001 209.02 103.7 208.866668 103.78 208.64 103.86 208.413332 103.9 208.046669 103.9 207.54L103.9 197.62C103.9 197.113331 103.86 196.746668 103.78 196.52 103.7 196.293332 103.550001 196.14 103.33 196.06 103.109999 195.98 102.760002 195.926667 102.28 195.9L102.28 195.5C102.840003 195.54 103.693328 195.56 104.84 195.56 105.906672 195.56 106.75333 195.54 107.38 195.5L107.38 195.9zM110.74 207.38C111.086668 207.38 111.386665 207.506665 111.64 207.76 111.893335 208.013335 112.02 208.313332 112.02 208.66 112.02 209.006668 111.893335 209.306665 111.64 209.56 111.386665 209.813335 111.086668 209.94 110.74 209.94 110.393332 209.94 110.093335 209.813335 109.84 209.56 109.586665 209.306665 109.46 209.006668 109.46 208.66 109.46 208.313332 109.586665 208.013335 109.84 207.76 110.093335 207.506665 110.393332 207.38 110.74 207.38z"/>
  </g>
</svg>
