<svg xmlns="http://www.w3.org/2000/svg" width="140" height="210" viewBox="0 0 140 210">
  <g fill="none" fill-rule="evenodd">
    <path fill="#3E3E3E" d="M48.248 177.688C47.6959972 178.504004 47.1440028 179.091998 46.592 179.452 46.0399972 179.812002 45.3080046 179.992 44.396 179.992 43.4119951 179.992 42.6020032 179.704003 41.966 179.128 41.3299968 178.551997 40.8560016 177.544007 40.544 176.104L39.752 172.504C39.4639986 171.255994 39.1940013 170.296003 38.942 169.624 38.6899987 168.951997 38.3120025 168.412002 37.808 168.004 37.3039975 167.595998 36.5960046 167.392 35.684 167.392L32.264 167.392 32.264 175.672C32.264 176.584005 32.3359993 177.243998 32.48 177.652 32.6240007 178.060002 32.893998 178.335999 33.29 178.48 33.686002 178.624001 34.3159957 178.72 35.18 178.768L35.18 179.488C34.0759945 179.416 32.5520097 179.38 30.608 179.38 28.5439897 179.38 27.008005 179.416 26 179.488L26 178.768C26.8640043 178.72 27.493998 178.624001 27.89 178.48 28.286002 178.335999 28.5559993 178.060002 28.7 177.652 28.8440007 177.243998 28.916 176.584005 28.916 175.672L28.916 157.816C28.916 156.903995 28.8440007 156.244002 28.7 155.836 28.5559993 155.427998 28.286002 155.152001 27.89 155.008 27.493998 154.863999 26.8640043 154.768 26 154.72L26 154C27.008005 154.072 28.4719904 154.108 30.392 154.108L34.28 154.072C34.7360023 154.048 35.2519971 154.036 35.828 154.036 38.6120139 154.036 40.7539925 154.617994 42.254 155.782 43.7540075 156.946006 44.504 158.451991 44.504 160.3 44.504 161.236005 44.2820022 162.177995 43.838 163.126 43.3939978 164.074005 42.6500052 164.925996 41.606 165.682 40.5619948 166.438004 39.2000084 166.947999 37.52 167.212L37.952 167.284C39.5360079 167.548001 40.6879964 168.027997 41.408 168.724 42.1280036 169.420003 42.6559983 170.523992 42.992 172.036L43.892 175.708C44.1320012 176.812006 44.3839987 177.579998 44.648 178.012 44.9120013 178.444002 45.2719977 178.66 45.728 178.66 46.136002 178.66 46.4779986 178.552001 46.754 178.336 47.0300014 178.119999 47.3479982 177.772002 47.708 177.292L48.248 177.688zM34.928 154.72C34.1839963 154.72 33.6260019 154.803999 33.254 154.972 32.8819981 155.140001 32.6240007 155.439998 32.48 155.872 32.3359993 156.304002 32.264 156.951996 32.264 157.816L32.264 166.672 34.676 166.672C37.0520119 166.672 38.6839956 166.144005 39.572 165.088 40.4600044 164.031995 40.904 162.568009 40.904 160.696 40.904 158.72799 40.4360047 157.240005 39.5 156.232 38.5639953 155.223995 37.0400106 154.72 34.928 154.72zM64.484 175.168C64.0519978 176.488007 63.2420059 177.621995 62.054 178.57 60.8659941 179.518005 59.4320084 179.992 57.752 179.992 56.0479915 179.992 54.5720062 179.602004 53.324 178.822 52.0759938 178.041996 51.1220033 176.950007 50.462 175.546 49.8019967 174.141993 49.472 172.516009 49.472 170.668 49.472 168.57999 49.8079966 166.768008 50.48 165.232 51.1520034 163.695992 52.0999939 162.514004 53.324 161.686 54.5480061 160.857996 55.9759918 160.444 57.608 160.444 59.7680108 160.444 61.4299942 161.097993 62.594 162.406 63.7580058 163.714007 64.34 165.699987 64.34 168.364L53.072 168.364C52.9999996 169.036003 52.964 169.803996 52.964 170.668 52.964 172.252008 53.2219974 173.631994 53.738 174.808 54.2540026 175.984006 54.9379957 176.889997 55.79 177.526 56.6420043 178.162003 57.5359953 178.48 58.472 178.48 59.6240058 178.48 60.6439956 178.204003 61.532 177.652 62.4200044 177.099997 63.163997 176.176006 63.764 174.88L64.484 175.168zM57.464 161.128C56.3359944 161.128 55.3640041 161.679994 54.548 162.784 53.7319959 163.888006 53.228001 165.519989 53.036 167.68L60.884 167.68C60.9320002 165.807991 60.6620029 164.248006 60.074 163 59.4859971 161.751994 58.6160058 161.128 57.464 161.128zM71.9 179.74C70.3879924 179.74 69.2660037 179.362004 68.534 178.606 67.8019963 177.849996 67.436 176.800007 67.436 175.456 67.436 174.375995 67.7299971 173.488003 68.318 172.792 68.9060029 172.095997 69.601996 171.544002 70.406 171.136 71.210004 170.727998 72.2719934 170.296002 73.592 169.84 74.9360067 169.383998 75.9319968 168.964002 76.58 168.58 77.2280032 168.195998 77.552 167.680003 77.552 167.032L77.552 164.8C77.552 163.407993 77.2580029 162.454003 76.67 161.938 76.0819971 161.421997 75.2600053 161.164 74.204 161.164 72.5239916 161.164 71.3360035 161.595996 70.64 162.46 71.1200024 162.580001 71.5219984 162.831998 71.846 163.216 72.1700016 163.600002 72.332 164.079997 72.332 164.656 72.332 165.256003 72.1400019 165.729998 71.756 166.078 71.3719981 166.426002 70.880003 166.6 70.28 166.6 69.6079966 166.6 69.1040017 166.390002 68.768 165.97 68.4319983 165.549998 68.264 165.040003 68.264 164.44 68.264 163.863997 68.4019986 163.384002 68.678 163 68.9540014 162.615998 69.3679972 162.232002 69.92 161.848 70.4960029 161.439998 71.2279956 161.104001 72.116 160.84 73.0040044 160.575999 73.9759947 160.444 75.032 160.444 76.9040094 160.444 78.3199952 160.887996 79.28 161.776 79.880003 162.328003 80.281999 162.993996 80.486 163.774 80.690001 164.554004 80.792 165.579994 80.792 166.852L80.792 176.86C80.792 177.460003 80.8759992 177.891999 81.044 178.156 81.2120008 178.420001 81.499998 178.552 81.908 178.552 82.1960014 178.552 82.4659987 178.486001 82.718 178.354 82.9700013 178.221999 83.2399986 178.036001 83.528 177.796L83.924 178.408C83.2999969 178.888002 82.7660022 179.229999 82.322 179.434 81.8779978 179.638001 81.3200034 179.74 80.648 179.74 79.4959942 179.74 78.6920023 179.452003 78.236 178.876 77.7799977 178.299997 77.552 177.520005 77.552 176.536 76.8319964 177.736006 76.0040047 178.569998 75.068 179.038 74.1319953 179.506002 73.0760059 179.74 71.9 179.74zM73.484 178.3C75.0680079 178.3 76.4239944 177.388009 77.552 175.564L77.552 168.508C77.3359989 168.844002 77.0360019 169.119999 76.652 169.336 76.2679981 169.552001 75.680004 169.839998 74.888 170.2 73.9759954 170.584002 73.2380028 170.949998 72.674 171.298 72.1099972 171.646002 71.624002 172.119997 71.216 172.72 70.807998 173.320003 70.604 174.087995 70.604 175.024 70.604 176.104005 70.8679974 176.919997 71.396 177.472 71.9240026 178.024003 72.6199957 178.3 73.484 178.3zM94.004 160.444C95.612008 160.444 97.0039941 160.827996 98.18 161.596 99.3080056 162.340004 99.872 163.263994 99.872 164.368 99.872 164.992003 99.6920018 165.483998 99.332 165.844 98.9719982 166.204002 98.5160028 166.384 97.964 166.384 97.4119972 166.384 96.9440019 166.222002 96.56 165.898 96.1759981 165.573998 95.984 165.136003 95.984 164.584 95.984 164.079997 96.1279986 163.654002 96.416 163.306 96.7040014 162.957998 97.0639978 162.724001 97.496 162.604 97.2559988 162.171998 96.8300031 161.812001 96.218 161.524 95.6059969 161.235999 94.9520035 161.092 94.256 161.092 93.3679956 161.092 92.5400038 161.373997 91.772 161.938 91.0039962 162.502003 90.3680025 163.437993 89.864 164.746 89.3599975 166.054007 89.108 167.775989 89.108 169.912 89.108 172.888015 89.5879952 175.053993 90.548 176.41 91.5080048 177.766007 92.7559923 178.444 94.292 178.444 95.3240052 178.444 96.3019954 178.144003 97.226 177.544 98.1500046 176.943997 98.911997 176.008006 99.512 174.736L100.196 174.988C99.787998 176.356007 99.0260056 177.531995 97.91 178.516 96.7939944 179.500005 95.3480089 179.992 93.572 179.992 92.0839926 179.992 90.7340061 179.608004 89.522 178.84 88.3099939 178.071996 87.3560035 176.962007 86.66 175.51 85.9639965 174.057993 85.616 172.37201 85.616 170.452 85.616 168.50799 85.9699965 166.780008 86.678 165.268 87.3860035 163.755992 88.3759936 162.574004 89.648 161.722 90.9200064 160.869996 92.3719918 160.444 94.004 160.444zM108.296 160.984L113.624 160.984 113.624 161.704 108.296 161.704 108.296 175.636C108.296 176.716005 108.493998 177.495998 108.89 177.976 109.286002 178.456002 109.855996 178.696 110.6 178.696 111.344004 178.696 111.979997 178.396003 112.508 177.796 113.036003 177.195997 113.479998 176.212007 113.84 174.844L114.56 175.024C113.959997 178.336017 112.400013 179.992 109.88 179.992 109.063996 179.992 108.392003 179.896001 107.864 179.704 107.335997 179.511999 106.868002 179.212002 106.46 178.804 105.931997 178.275997 105.566001 177.628004 105.362 176.86 105.157999 176.091996 105.056 175.060006 105.056 173.764L105.056 161.704 101.6 161.704 101.6 160.984 105.056 160.984 105.056 155.476C106.400007 155.428 107.479996 155.260001 108.296 154.972L108.296 160.984zM36.98 195.52C36.8866662 196.466671 36.84 197.319996 36.84 198.08 36.84 198.74667 36.8599998 199.293331 36.9 199.72L36.44 199.72C36.3333328 198.693328 36.2000008 197.930003 36.04 197.43 35.8799992 196.929998 35.600002 196.563334 35.2 196.33 34.799998 196.096666 34.1866708 195.98 33.36 195.98L32.1 195.98C31.6199976 195.98 31.2700011 196.016666 31.05 196.09 30.8299989 196.163334 30.6800004 196.313332 30.6 196.54 30.5199996 196.766668 30.48 197.133331 30.48 197.64L30.48 202.56 31.94 202.56C32.406669 202.56 32.7666654 202.450001 33.02 202.23 33.2733346 202.009999 33.4433329 201.750001 33.53 201.45 33.6166671 201.149999 33.6866664 200.773336 33.74 200.32L33.8 199.92 34.26 199.92C34.2199998 200.480003 34.2 201.106663 34.2 201.8L34.2 202.76C34.2 203.440003 34.2399996 204.386661 34.32 205.6L33.86 205.6C33.8466666 205.506666 33.806667 205.183336 33.74 204.63 33.673333 204.076664 33.4900015 203.660001 33.19 203.38 32.8899985 203.099999 32.473336 202.96 31.94 202.96L30.48 202.96 30.48 207.56C30.48 208.066669 30.5333328 208.433332 30.64 208.66 30.7466672 208.886668 30.933332 209.04 31.2 209.12 31.466668 209.2 31.899997 209.253333 32.5 209.28L32.5 209.68C31.8066632 209.64 30.826673 209.62 29.56 209.62 28.4133276 209.62 27.5600028 209.64 27 209.68L27 209.28C27.4800024 209.253333 27.8299989 209.2 28.05 209.12 28.2700011 209.04 28.4199996 208.886668 28.5 208.66 28.5800004 208.433332 28.62 208.066669 28.62 207.56L28.62 197.64C28.62 197.133331 28.5800004 196.766668 28.5 196.54 28.4199996 196.313332 28.2700011 196.16 28.05 196.08 27.8299989 196 27.4800024 195.946667 27 195.92L27 195.52C28.3066732 195.56 30.2399872 195.58 32.8 195.58 34.7600098 195.58 36.1533292 195.56 36.98 195.52zM44.34 199.1C44.873336 199.1 45.3099983 199.253332 45.65 199.56 45.9900017 199.866668 46.16 200.239998 46.16 200.68 46.16 201.026668 46.0566677 201.323332 45.85 201.57 45.6433323 201.816668 45.3666684 201.94 45.02 201.94 44.7266652 201.94 44.4766677 201.846668 44.27 201.66 44.0633323 201.473332 43.96 201.220002 43.96 200.9 43.96 200.459998 44.1866644 200.100001 44.64 199.82 44.5466662 199.686666 44.4066676 199.62 44.22 199.62 43.6999974 199.62 43.2266688 199.823331 42.8 200.23 42.3733312 200.636669 42.0400012 201.13333 41.8 201.72 41.5599988 202.30667 41.44 202.859997 41.44 203.38L41.44 207.62C41.44 208.233336 41.6166649 208.659999 41.97 208.9 42.3233351 209.140001 42.8533298 209.26 43.56 209.26L43.56 209.68 43.08 209.66C41.7199932 209.62 40.8533352 209.6 40.48 209.6 40.1333316 209.6 39.3466728 209.626666 38.12 209.68L38.12 209.26C38.6800028 209.26 39.0733322 209.156668 39.3 208.95 39.5266678 208.743332 39.64 208.366669 39.64 207.82L39.64 201.56C39.64 200.946664 39.5266678 200.500001 39.3 200.22 39.0733322 199.939999 38.6800028 199.8 38.12 199.8L38.12 199.38C38.5466688 199.42 38.959998 199.44 39.36 199.44 40.2000042 199.44 40.8933306 199.346668 41.44 199.16L41.44 201.66C41.6800012 200.99333 42.0633307 200.400003 42.59 199.88 43.1166693 199.359997 43.6999968 199.1 44.34 199.1zM51.52 199.1C52.8800068 199.1 53.9766625 199.549995 54.81 200.45 55.6433375 201.350005 56.06 202.713324 56.06 204.54 56.06 206.366676 55.6433375 207.726662 54.81 208.62 53.9766625 209.513338 52.8800068 209.96 51.52 209.96 50.1599932 209.96 49.0633375 209.513338 48.23 208.62 47.3966625 207.726662 46.98 206.366676 46.98 204.54 46.98 202.713324 47.3966625 201.350005 48.23 200.45 49.0633375 199.549995 50.1599932 199.1 51.52 199.1zM51.52 199.5C50.719996 199.5 50.086669 199.909996 49.62 200.73 49.153331 201.550004 48.92 202.819991 48.92 204.54 48.92 206.260009 49.153331 207.526663 49.62 208.34 50.086669 209.153337 50.719996 209.56 51.52 209.56 52.320004 209.56 52.953331 209.153337 53.42 208.34 53.886669 207.526663 54.12 206.260009 54.12 204.54 54.12 202.819991 53.886669 201.550004 53.42 200.73 52.953331 199.909996 52.320004 199.5 51.52 199.5zM64.3 199.1C65.233338 199.1 65.9399976 199.353331 66.42 199.86 66.6733346 200.126668 66.8533328 200.459998 66.96 200.86 67.0666672 201.260002 67.12 201.799997 67.12 202.48L67.12 207.82C67.12 208.366669 67.2333322 208.743332 67.46 208.95 67.6866678 209.156668 68.0799972 209.26 68.64 209.26L68.64 209.68C67.4133272 209.626666 66.6133352 209.6 66.24 209.6 65.8666648 209.6 65.1200056 209.626666 64 209.68L64 209.26C64.4933358 209.26 64.8366657 209.156668 65.03 208.95 65.2233343 208.743332 65.32 208.366669 65.32 207.82L65.32 202.04C65.32 201.29333 65.2133344 200.723335 65 200.33 64.7866656 199.936665 64.3533366 199.74 63.7 199.74 63.1533306 199.74 62.6666688 199.899998 62.24 200.22 61.8133312 200.540002 61.4833345 200.976664 61.25 201.53 61.0166655 202.083336 60.9 202.699997 60.9 203.38L60.9 207.82C60.9 208.366669 60.9966657 208.743332 61.19 208.95 61.3833343 209.156668 61.7266642 209.26 62.22 209.26L62.22 209.68C61.0999944 209.626666 60.3533352 209.6 59.98 209.6 59.6066648 209.6 58.8066728 209.626666 57.58 209.68L57.58 209.26C58.1400028 209.26 58.5333322 209.156668 58.76 208.95 58.9866678 208.743332 59.1 208.366669 59.1 207.82L59.1 201.56C59.1 200.946664 58.9866678 200.500001 58.76 200.22 58.5333322 199.939999 58.1400028 199.8 57.58 199.8L57.58 199.38C58.0066688 199.42 58.419998 199.44 58.82 199.44 59.6600042 199.44 60.3533306 199.346668 60.9 199.16L60.9 201.52C61.233335 200.666662 61.6966637 200.050002 62.29 199.67 62.8833363 199.289998 63.5533296 199.1 64.3 199.1zM72.74 199.4L75.7 199.4 75.7 199.8 72.74 199.8 72.74 207.54C72.74 208.140003 72.8499989 208.573332 73.07 208.84 73.2900011 209.106668 73.6066646 209.24 74.02 209.24 74.4333354 209.24 74.7866652 209.073335 75.08 208.74 75.3733348 208.406665 75.619999 207.860004 75.82 207.1L76.22 207.2C75.886665 209.040009 75.020007 209.96 73.62 209.96 73.1666644 209.96 72.7933348 209.906667 72.5 209.8 72.2066652 209.693333 71.9466678 209.526668 71.72 209.3 71.4266652 209.006665 71.2233339 208.646669 71.11 208.22 70.9966661 207.793331 70.94 207.220004 70.94 206.5L70.94 199.8 69.02 199.8 69.02 199.4 70.94 199.4 70.94 196.34C71.6866704 196.313333 72.2866644 196.220001 72.74 196.06L72.74 199.4zM85.28 207.28C85.0399988 208.013337 84.5900033 208.643331 83.93 209.17 83.2699967 209.696669 82.473338 209.96 81.54 209.96 80.5933286 209.96 79.7733368 209.743336 79.08 209.31 78.3866632 208.876665 77.8566685 208.270004 77.49 207.49 77.1233315 206.709996 76.94 205.806672 76.94 204.78 76.94 203.619994 77.1266648 202.613338 77.5 201.76 77.8733352 200.906662 78.3999966 200.250002 79.08 199.79 79.7600034 199.329998 80.5533288 199.1 81.46 199.1 82.660006 199.1 83.5833301 199.46333 84.23 200.19 84.8766699 200.91667 85.2 202.019993 85.2 203.5L78.94 203.5C78.8999998 203.873335 78.88 204.299998 78.88 204.78 78.88 205.660004 79.0233319 206.426663 79.31 207.08 79.5966681 207.733337 79.9766643 208.236665 80.45 208.59 80.9233357 208.943335 81.4199974 209.12 81.94 209.12 82.5800032 209.12 83.1466642 208.966668 83.64 208.66 84.1333358 208.353332 84.546665 207.840004 84.88 207.12L85.28 207.28zM81.38 199.48C80.7533302 199.48 80.2133356 199.786664 79.76 200.4 79.3066644 201.013336 79.0266672 201.919994 78.92 203.12L83.28 203.12C83.3066668 202.079995 83.1566683 201.213337 82.83 200.52 82.5033317 199.826663 82.0200032 199.48 81.38 199.48zM93.44 199.1C94.373338 199.1 95.0799976 199.353331 95.56 199.86 95.8133346 200.126668 95.9933328 200.459998 96.1 200.86 96.2066672 201.260002 96.26 201.799997 96.26 202.48L96.26 207.82C96.26 208.366669 96.3733322 208.743332 96.6 208.95 96.8266678 209.156668 97.2199972 209.26 97.78 209.26L97.78 209.68C96.5533272 209.626666 95.7533352 209.6 95.38 209.6 95.0066648 209.6 94.2600056 209.626666 93.14 209.68L93.14 209.26C93.6333358 209.26 93.9766657 209.156668 94.17 208.95 94.3633343 208.743332 94.46 208.366669 94.46 207.82L94.46 202.04C94.46 201.29333 94.3533344 200.723335 94.14 200.33 93.9266656 199.936665 93.4933366 199.74 92.84 199.74 92.2933306 199.74 91.8066688 199.899998 91.38 200.22 90.9533312 200.540002 90.6233345 200.976664 90.39 201.53 90.1566655 202.083336 90.04 202.699997 90.04 203.38L90.04 207.82C90.04 208.366669 90.1366657 208.743332 90.33 208.95 90.5233343 209.156668 90.8666642 209.26 91.36 209.26L91.36 209.68C90.2399944 209.626666 89.4933352 209.6 89.12 209.6 88.7466648 209.6 87.9466728 209.626666 86.72 209.68L86.72 209.26C87.2800028 209.26 87.6733322 209.156668 87.9 208.95 88.1266678 208.743332 88.24 208.366669 88.24 207.82L88.24 201.56C88.24 200.946664 88.1266678 200.500001 87.9 200.22 87.6733322 199.939999 87.2800028 199.8 86.72 199.8L86.72 199.38C87.1466688 199.42 87.559998 199.44 87.96 199.44 88.8000042 199.44 89.4933306 199.346668 90.04 199.16L90.04 201.52C90.373335 200.666662 90.8366637 200.050002 91.43 199.67 92.0233363 199.289998 92.6933296 199.1 93.44 199.1zM107.76 207.5C107.76 208.113336 107.873332 208.559999 108.1 208.84 108.326668 209.120001 108.719997 209.26 109.28 209.26L109.28 209.68C108.866665 209.64 108.453335 209.62 108.04 209.62 107.199996 209.62 106.506669 209.713332 105.96 209.9L105.96 208.12C105.719999 208.720003 105.360002 209.176665 104.88 209.49 104.399998 209.803335 103.813337 209.96 103.12 209.96 101.839994 209.96 100.83667 209.500005 100.11 208.58 99.3833297 207.659995 99.0266666 206.313342 99.04 204.54 99.04 203.379994 99.2433313 202.390004 99.65 201.57 100.056669 200.749996 100.60333 200.133335 101.29 199.72 101.97667 199.306665 102.733329 199.1 103.56 199.1 104.066669 199.1 104.529998 199.196666 104.95 199.39 105.370002 199.583334 105.706665 199.879998 105.96 200.28L105.96 196.4C105.96 195.786664 105.846668 195.340001 105.62 195.06 105.393332 194.779999 105.000003 194.64 104.44 194.64L104.44 194.22C104.866669 194.26 105.279998 194.28 105.68 194.28 106.520004 194.28 107.213331 194.186668 107.76 194L107.76 207.5zM103.7 209.36C104.220003 209.36 104.686665 209.160002 105.1 208.76 105.513335 208.359998 105.799999 207.793337 105.96 207.06L105.96 201.1C105.599998 200.073328 104.853339 199.56 103.72 199.56 102.893329 199.56 102.226669 199.983329 101.72 200.83 101.213331 201.676671 100.966667 202.913325 100.98 204.54 100.966667 206.140008 101.193331 207.343329 101.66 208.15 102.126669 208.956671 102.806662 209.36 103.7 209.36zM112.22 207.4C112.566668 207.4 112.866665 207.526665 113.12 207.78 113.373335 208.033335 113.5 208.333332 113.5 208.68 113.5 209.026668 113.373335 209.326665 113.12 209.58 112.866665 209.833335 112.566668 209.96 112.22 209.96 111.873332 209.96 111.573335 209.833335 111.32 209.58 111.066665 209.326665 110.94 209.026668 110.94 208.68 110.94 208.333332 111.066665 208.033335 111.32 207.78 111.573335 207.526665 111.873332 207.4 112.22 207.4z"/>
    <g fill-rule="nonzero">
      <path fill="#FFFFFF" d="M0,62.2753056 C0,72.775156 10.2989034,82.5766557 26.5351963,88.1017136 C23.2928778,104.351209 25.9544662,117.448836 34.8432602,122.552042 C43.9796055,127.797869 57.591086,124.166774 70.5104107,112.923764 C83.1036922,123.712682 95.830904,127.958523 104.712013,122.840563 C113.840125,117.579982 116.615884,103.594389 113.284095,86.8372507 C130.195528,81.2712098 139.655172,72.9134054 139.655172,62.2753056 C139.655172,52.0191675 129.337607,43.1466163 113.319774,37.657077 C116.906798,20.2075988 113.86757,7.42799948 104.610468,2.11386753 C95.6859959,-3.00955675 82.8105827,1.45595341 70.0323238,12.5268339 C56.7381042,0.77618167 43.9900345,-2.81119892 34.7428125,2.51768691 C25.8265738,7.65586508 23.2824488,20.9917407 26.5351963,37.5417781 C10.8466999,42.9870557 0,52.060697 0,62.2753056 Z"/>
      <path fill="#53C1DE" d="M111.066744,43.7646872 C109.745444,43.3118773 108.412934,42.8924007 107.070482,42.5066569 C107.293109,41.602876 107.498982,40.695058 107.687996,39.7836687 C110.712936,25.1132341 108.735133,13.2947742 101.980934,9.40432068 C95.5052763,5.67304208 84.9141389,9.56349556 74.2175187,18.8631504 C73.163505,19.781613 72.1328871,20.7265351 71.1266515,21.697012 C70.4528028,21.0517024 69.7670467,20.4189194 69.0697359,19.7989888 C57.8594362,9.85440136 46.6227657,5.66426002 39.8757091,9.56623995 C33.4060943,13.3079473 31.4898226,24.4189024 34.213148,38.3220043 C34.4840999,39.698817 34.7900256,41.0685289 35.130629,42.4298138 C33.5406948,42.8809922 32.0051502,43.3618101 30.5360818,43.8733653 C17.393578,48.4510151 9,55.6259598 9,63.0676596 C9,70.7541594 18.0099934,78.4637121 31.6996895,83.1379646 C32.8097217,83.5152257 33.9289932,83.8647872 35.0564614,84.1863232 C34.6901842,85.6528948 34.3650016,87.1294064 34.0812944,88.6141291 C31.484878,102.275724 33.5126759,113.123218 39.9652596,116.841872 C46.6299078,120.68128 57.815485,116.734841 68.707688,107.22277 C69.5685819,106.470806 70.4327721,105.673285 71.2980611,104.837342 C72.3879527,105.887929 73.506945,106.907959 74.6537342,107.896244 C85.2042168,116.966467 95.6239445,120.629136 102.071034,116.900602 C108.729639,113.049668 110.893136,101.39642 108.083557,87.2183301 C107.869295,86.1353921 107.619322,85.0294012 107.339133,83.9031017 C108.124761,83.6714748 108.895555,83.4321636 109.64767,83.1829726 C123.879064,78.4724941 133.137931,70.8567997 133.137931,63.0676596 C133.137931,55.5990647 124.474053,48.3758187 111.066744,43.7646872 Z"/>
      <path fill="#FFFFFF" d="M107.685134,77.3875858 C107.00508,77.610652 106.306855,77.8260827 105.595414,78.0349687 C104.020552,73.0975146 101.89504,67.8470043 99.2948665,62.4230585 C101.77665,57.1272804 103.819565,51.9443989 105.350374,47.0385777 C106.622928,47.4039918 107.858589,47.7884948 109.049096,48.1948135 C120.563206,52.1200159 127.586207,57.9246468 127.586207,62.3968796 C127.586207,67.1608983 120.000991,73.345669 107.685684,77.3875858 L107.685134,77.3875858 Z M102.575094,87.4168405 C103.820115,93.6463335 103.997976,99.2786199 103.173101,103.681588 C102.431925,107.637877 100.941863,110.275404 99.0993855,111.331833 C95.1782006,113.579948 86.7923385,110.657725 77.74955,102.950214 C76.7126744,102.066675 75.6680897,101.123143 74.6207517,100.125072 C78.1267458,96.3269462 81.6305373,91.9114344 85.0500792,87.0083402 C91.0653893,86.4798532 96.7481063,85.6154033 101.901648,84.4357156 C102.154947,85.4501488 102.380714,86.4444026 102.575094,87.4168405 L102.575094,87.4168405 Z M50.8965097,110.943512 C47.0656316,112.283546 44.0144751,112.321723 42.1703453,111.268567 C38.245306,109.026997 36.6142781,100.37159 38.8394582,88.7628735 C39.104068,87.3909672 39.4070425,86.0265934 39.7480322,84.6713259 C44.844306,85.7877479 50.4857241,86.5911136 56.5153511,87.0754237 C59.9574697,91.8732569 63.562581,96.2833147 67.1957754,100.145251 C66.4236248,100.885059 65.6332013,101.605925 64.8252234,102.307194 C59.9976672,106.487096 55.1601994,109.451859 50.8970603,110.943512 L50.8965097,110.943512 Z M32.9491459,77.3581345 C26.8820746,75.3041797 21.8717024,72.6350203 18.4372929,69.7226151 C15.3514454,67.1047227 13.7931034,64.5059191 13.7931034,62.3968796 C13.7931034,57.9099211 20.5479377,52.1860086 31.8137038,48.2957114 C33.2277197,47.8095564 34.655802,47.3645059 36.0961156,46.9611317 C37.6533563,51.9771226 39.6957203,57.2216336 42.1604336,62.5250472 C39.6637826,67.907543 37.592234,73.2354994 36.0206764,78.3103928 C34.9891099,78.0179482 33.9649571,77.7004328 32.9491459,77.3581345 L32.9491459,77.3581345 Z M38.9655573,36.7971646 C36.626943,24.9604733 38.1797785,16.0318242 42.0877477,13.7913446 C46.2506683,11.4046994 55.4547976,14.8079595 65.1561646,23.3395616 C65.7761975,23.8849559 66.3989836,24.4559837 67.022871,25.0466456 C63.4083987,28.8911296 59.8363265,33.2679184 56.4239431,38.0379365 C50.5721763,38.5751498 44.970405,39.4379635 39.8207181,40.5936539 C39.503501,39.3352929 39.2183569,38.0692126 38.9655573,36.7966192 L38.9655573,36.7971646 Z M92.6358456,49.9231678 C91.4195003,47.842178 90.1580336,45.7873829 88.8523234,43.7602129 C92.8225162,44.2565217 96.6258618,44.9164487 100.197383,45.7241776 C99.1252661,49.127983 97.7888364,52.6872259 96.2150762,56.3359134 C95.0652165,54.1749467 93.8719017,52.0369387 92.6358456,49.9231678 L92.6358456,49.9231678 Z M70.7491255,28.8087751 C73.2006231,31.4392116 75.6559754,34.3767049 78.0711301,37.5634435 C73.1719952,37.3341489 68.2646863,37.333057 63.365448,37.5601711 C65.7828053,34.4028839 68.2590822,31.4697536 70.7491255,28.8087751 L70.7491255,28.8087751 Z M48.7219894,49.9591639 C47.501409,52.056124 46.3304064,54.1810131 45.2099381,56.3320956 C43.6620586,52.6959522 42.3377432,49.1208929 41.2562649,45.6685474 C44.8063111,44.8815435 48.5920358,44.2385236 52.536348,43.7503958 C51.2160046,45.7901291 49.9442013,47.860289 48.7219894,49.9591639 L48.7219894,49.9591639 Z M52.649782,81.41914 C48.5749656,80.9686444 44.7319732,80.3583482 41.1830283,79.5931601 C42.2815768,76.0797304 43.6350767,72.4277705 45.2159953,68.7136357 C46.3411872,70.8663126 47.5173355,72.9924836 48.7434648,75.0903852 C49.9946049,77.2304183 51.2970807,79.3406028 52.649782,81.41914 L52.649782,81.41914 Z M70.8961492,96.3569429 C68.3769215,93.6643315 65.8643016,90.686479 63.4100507,87.4833786 C65.7921663,87.5760956 68.2210873,87.6229995 70.6896552,87.6229995 C73.2259531,87.6229995 75.7330665,87.5668239 78.200533,87.4577451 C75.7776692,90.7192026 73.3311274,93.7014184 70.8961492,96.3569429 Z M96.2657361,68.5243839 C97.9287017,72.2788779 99.3306588,75.9112035 100.444075,79.3651853 C96.8362104,80.1805497 92.9414568,80.8372043 88.8374559,81.3247868 C90.1526036,79.2597682 91.426144,77.1690402 92.657321,75.0538438 C93.9088873,72.9041427 95.1119903,70.727117 96.2657361,68.5243839 L96.2657361,68.5243839 Z M88.0527784,72.4239527 C86.1680106,75.666843 84.1772735,78.8481725 82.083723,81.9628981 C78.3921595,82.2241419 74.5772503,82.3588543 70.6896552,82.3588543 C66.8180289,82.3588543 63.051577,82.2394129 59.4244397,82.0065296 C57.2765909,78.8990562 55.2481948,75.7122207 53.3436021,72.4528586 C51.4479118,69.2107895 49.6772111,65.898587 48.0353278,62.523411 C49.673035,59.1472239 51.4383849,55.8332472 53.3276333,52.5885095 L53.3276333,52.5896003 C55.2162889,49.3441716 57.2287163,46.1709624 59.3605642,43.0768339 C63.060938,42.7997736 66.8549225,42.6546988 70.6902058,42.6546988 C74.5425593,42.6546988 78.3414997,42.8008644 82.0407722,43.0801063 C84.1510568,46.1694734 86.150613,49.3316372 88.0357082,52.5606944 C89.9314532,55.7982132 91.7203626,59.0959564 93.3995983,62.448692 C91.7376361,65.8355868 89.9544162,69.1627825 88.053329,72.4239527 L88.0527784,72.4239527 Z M99.0178891,13.6348165 C103.184114,16.014917 104.804679,25.6122195 102.186885,38.1982824 C102.015302,39.0181884 101.828785,39.8349585 101.627424,40.6481933 C96.4656224,39.4685056 90.8599965,38.5904209 84.9911596,38.0450266 C81.5721683,33.2231961 78.0298313,28.8387718 74.4737279,25.0439187 C75.4055742,24.1541341 76.3595958,23.287417 77.3349099,22.4445697 C86.5208677,14.5265361 95.1060654,11.4003363 99.0178891,13.6348165 L99.0178891,13.6348165 Z"/>
      <path fill="#53C1DE" d="M70.6896552,51.7241379 C76.8793591,51.7241379 81.8965517,56.7417617 81.8965517,62.9307568 C81.8965517,69.1203073 76.8793591,74.137931 70.6896552,74.137931 C64.5005067,74.137931 59.4827586,69.1203073 59.4827586,62.9307568 C59.4827586,56.7417617 64.5005067,51.7241379 70.6896552,51.7241379"/>
    </g>
  </g>
</svg>
