<?xml version="1.0" encoding="utf-8"?>
<!-- Generator: Adobe Illustrator 21.0.0, SVG Export Plug-In . SVG Version: 6.00 Build 0)  -->
<svg version="1.1" id="Layer_1" xmlns="http://www.w3.org/2000/svg" xmlns:xlink="http://www.w3.org/1999/xlink" x="0px" y="0px"
	 viewBox="0 0 504.1 520.5" style="enable-background:new 0 0 504.1 520.5;" xml:space="preserve">
<style type="text/css">
	.st0{fill:#1D1B39;}
	.st1{fill:#EF3E24;}
</style>
<rect class="st0" width="504.1" height="520.5"/>
<path class="st1" d="M476.1,260.3c0-123.8-100.7-224.5-224.5-224.5c-123.7,0-224.5,100.9-224.5,224.5
	c0,123.8,100.7,224.5,224.5,224.5h0.2l137.3-1.3l0.6-231.8l-0.5,0c-3.7-70.8-62.5-127.3-134.2-127.3c-74.1,0-134,59.6-134.4,133.7
	c-0.3,71.3,55.1,130,125.1,134.7c3.1,0.2,67,0.3,67,0.3c0-14.3,1-32-16.6-40.1c-10.6-4.9-31.3-2.5-53.3-4.4
	c-45.7-3.9-80.3-45.9-78.5-93.4c1.8-47.1,40-85.3,87.1-87.2c51.6-2,94.2,39.4,94.2,90.6h0.3l-0.5,181.4l-94.2,1
	C151.6,441,70.4,359.6,70.7,259.8C71,160.6,152,79.7,251.1,79.4c99.9-0.2,181.3,81,181.3,180.9l0.8,179.1
	c-1.6,34.2,6.4,45.3,43.9,43.5h0L476.1,260.3z"/>
</svg>
