<?xml version="1.0" encoding="utf-8"?>
<!-- Generator: Adobe Illustrator 21.0.0, SVG Export Plug-In . SVG Version: 6.00 Build 0)  -->
<svg version="1.1" id="Layer_1" xmlns="http://www.w3.org/2000/svg" xmlns:xlink="http://www.w3.org/1999/xlink" x="0px" y="0px"
	 viewBox="0 0 443.8 480.8" style="enable-background:new 0 0 443.8 480.8;" xml:space="preserve">
<style type="text/css">
	.st0{fill:#92C4E9;}
	.st1{fill:#EF3E24;}
</style>
<g>
	<g>
		<path class="st0" d="M68.2,383.9c-0.4-1.2-1.7-2-3.1-2c-1.3,0-2.6,0.8-3.1,2l-21.9,58.4c-0.3,0.8-0.3,1.7,0.1,2.5
			c0.3,0.8,1,1.4,1.7,1.7l0.2,0.1h0.2c0.1,0,0.2,0,0.3,0c0.2,0,0.4,0,0.5,0c1.3,0,2.5-0.8,3-2.1l5.3-14.2h27.3l5.3,14.2
			c0.5,1.2,1.7,2.1,3,2.1c0.2,0,0.4,0,0.5-0.1c0.1,0,0.2,0,0.3,0h0.2l0.2-0.1c1.6-0.7,2.4-2.6,1.7-4.2L68.2,383.9z M76.4,423.9H53.8
			l11.3-30L76.4,423.9z"/>
		<path class="st0" d="M137.7,440.1h-29.1v-55.4c0-1.7-1.5-3.2-3.2-3.2c-1.7,0-3.2,1.4-3.2,3.2v58.7c0,1.7,1.4,3.2,3.2,3.2h32.4
			c1.8,0,3.2-1.4,3.2-3.2C140.9,441.6,139.5,440.1,137.7,440.1z"/>
		<path class="st0" d="M188.3,388c1.8,0,3.2-1.4,3.2-3.2c0-1.8-1.4-3.2-3.2-3.2h-32.4c-1.7,0-3.2,1.4-3.2,3.2v58.7
			c0,1.7,1.2,3,3,3.2h32.6c1.8,0,3.2-1.4,3.2-3.2c0-1.9-1.4-3.2-3.2-3.2h-29.1v-22.8h25.4c1.7,0,3.2-1.4,3.2-3.2
			c0-1.8-1.4-3.2-3.2-3.2h-25.4V388H188.3z"/>
		<path class="st0" d="M260.5,383.4c-0.2-0.4-0.5-0.6-0.8-0.9l-0.2-0.1c-1.5-1-3.5-0.6-4.4,0.8l-21.5,29.9l-21.6-29.9
			c-1-1.4-2.9-1.7-4.4-0.8l-0.1,0.1c-0.1,0.1-0.2,0.2-0.3,0.3c-0.7,0.6-1.1,1.4-1.1,2.4v58.3c0,1.7,1.5,3.2,3.2,3.2
			c1.7,0,3.2-1.4,3.2-3.2v-48.7l18.3,25.3c0.6,1,1.5,1.5,2.7,1.5h0.2c1.1,0,2.1-0.5,2.6-1.4l18.3-25.5v48.7c0,1.8,1.4,3.2,3.2,3.2
			c1.7,0,3.2-1.4,3.2-3.2v-58.3c0-0.5-0.2-1-0.5-1.6L260.5,383.4z"/>
		<path class="st0" d="M305.2,410.2c3.3-3.2,5.1-7.4,5.1-11.9c0-9.2-7.5-16.7-16.7-16.7h-14c-1.7,0-3.2,1.4-3.2,3.2v58.7
			c0,1.7,1.4,3.2,3.2,3.2h18c10.5,0,19-8.5,19-19C316.6,420,312.1,413.3,305.2,410.2z M282.9,408.5V388h10.8
			c5.7,0,10.2,4.6,10.2,10.3c0,5.6-4.6,10.2-10.2,10.2H282.9z M310.2,427.5c-0.1,7.1-5.6,12.6-12.6,12.6h-14.7V415h14.7
			C304.5,415,310.1,420.6,310.2,427.5z"/>
		<path class="st0" d="M332.8,381.6c-1.7,0-3.2,1.4-3.2,3.2v58.7c0,1.7,1.4,3.2,3.2,3.2c1.8,0,3.2-1.4,3.2-3.2v-58.7
			C336,383,334.6,381.6,332.8,381.6z"/>
		<path class="st0" d="M401.3,433.7c-0.9-0.2-1.9,0-2.7,0.5l-0.1,0.1c-4.5,3.8-10.5,5.9-16.8,5.9c-15.1,0-27.3-11.8-27.3-26.4
			c0-14.7,12.3-26.7,27.3-26.7c6.2,0,12.1,2,17,5.9c0.7,0.5,1.6,0.8,2.4,0.6c0.8-0.1,1.5-0.6,2-1.2c0.5-0.6,0.8-1.3,0.7-2.1
			c0-1-0.5-1.8-1.3-2.5c-6-4.6-13.4-7.1-21-7.1h0c-18.9,0.1-33.8,14.6-33.8,33.1c0,18.1,15.1,32.8,33.8,32.8c7.6,0,15.1-2.5,20.9-7
			c0.7-0.5,1.2-1.4,1.3-2.4c0-0.8-0.2-1.6-0.8-2.2C402.7,434.3,402.1,433.9,401.3,433.7z"/>
	</g>
	<path class="st1" d="M362.7,187.3c0-84.4-68.6-153-153-153c-84.3,0-153,68.7-153,153c0,84.4,68.6,153,153,153h0.1l93.6-0.9l0.4-158
		l-0.3,0c-2.5-48.3-42.6-86.8-91.4-86.8c-50.5,0-91.3,40.6-91.6,91.1c-0.2,48.6,37.6,88.6,85.3,91.8c2.1,0.1,45.7,0.2,45.7,0.2
		c0-9.7,0.7-21.8-11.3-27.3c-7.2-3.3-21.3-1.7-36.3-3c-31.1-2.7-54.7-31.3-53.5-63.6c1.2-32.1,27.2-58.2,59.4-59.4
		c35.2-1.3,64.2,26.9,64.2,61.8h0.2l-0.3,123.6l-64.2,0.7c-68-0.1-123.3-55.5-123.1-123.6C86.6,119.4,141.8,64.2,209.3,64
		c68.1-0.2,123.6,55.2,123.6,123.3l0.5,122.1c-1.1,23.3,4.3,30.9,29.9,29.6h0L362.7,187.3z"/>
</g>
</svg>
